<svg class="border shadow-md" viewBox="0 0 540.32 270.16" style="width: 540.32px; height: 270.16px;" xmlns="http://www.w3.org/2000/svg" preserveAspectRatio="none"><rect class="bg" id="bg" x="0" y="0" width="540.32" height="270.16" fill="#757474"/><g transform="rotate(0 270.16 135.08)"><path d="M -246.77 9.22 S -154.00 -6.78&#10;            0.00 9.22 113.39 -1.17&#10;            246.77 9.22 360.16 -1.17&#10;            493.55 9.22 546.32 -5.78&#10;            740.32 9.22 811.09 -1.17&#10;            987.09 9.22 h 110 V 470.16 H -246.77 Z" fill="#696C6D" id="-1"/><path d="M -246.77 30.00 S -133.39 19.61&#10;            0.00 30.00 113.39 10.00&#10;            246.77 30.00 360.16 11.00&#10;            493.55 30.00 545.32 19.61&#10;            740.32 30.00 853.71 19.61&#10;            987.09 30.00 h 110 V 470.16 H -246.77 Z" fill="#72726d" id="0"/><path d="M -246.77 50.78 S -133.39 37.78&#10;            0.00 50.78 31.77 37.78&#10;            246.77 50.78 304.55 40.39&#10;            493.55 50.78 520.32 30.78&#10;            740.32 50.78 853.71 35.78&#10;            987.09 50.78 h 110 V 470.16 H -246.77 Z" fill="#7b786d" id="1"/><path d="M -246.77 71.56 S -133.39 61.17&#10;            0.00 71.56 104.77 51.56&#10;            246.77 71.56 360.16 61.17&#10;            493.55 71.56 587.32 57.56&#10;            740.32 71.56 853.71 61.17&#10;            987.09 71.56 h 110 V 470.16 H -246.77 Z" fill="#847e6d" id="2"/><path d="M -246.77 92.34 S -133.39 79.34&#10;            0.00 92.34 111.77 78.34&#10;            246.77 92.34 268.55 81.95&#10;            493.55 92.34 606.93 81.95&#10;            740.32 92.34 853.71 81.95&#10;            987.09 92.34 h 110 V 470.16 H -246.77 Z" fill="#8d846d" id="3"/><path d="M -246.77 113.13 S -133.39 102.74&#10;            0.00 113.13 113.39 100.13&#10;            246.77 113.13 360.16 102.74&#10;            493.55 113.13 606.93 102.74&#10;            740.32 113.13 853.71 102.74&#10;            987.09 113.13 h 110 V 470.16 H -246.77 Z" fill="#968a6d" id="4"/><path d="M -246.77 133.91 S -142.00 116.91&#10;            0.00 133.91 113.39 116.91&#10;            246.77 133.91 335.55 123.52&#10;            493.55 133.91 606.93 123.52&#10;            740.32 133.91 853.71 123.52&#10;            987.09 133.91 h 110 V 470.16 H -246.77 Z" fill="#9f906d" id="5"/><path d="M -246.77 154.69 S -133.39 143.69&#10;            0.00 154.69 50.77 144.30&#10;            246.77 154.69 360.16 144.30&#10;            493.55 154.69 527.32 144.30&#10;            740.32 154.69 853.71 144.30&#10;            987.09 154.69 h 110 V 470.16 H -246.77 Z" fill="#a8966d" id="6"/><path d="M -246.77 175.47 S -133.39 156.47&#10;            0.00 175.47 92.77 160.47&#10;            246.77 175.47 360.16 160.47&#10;            493.55 175.47 606.93 165.08&#10;            740.32 175.47 800.09 165.08&#10;            987.09 175.47 h 110 V 470.16 H -246.77 Z" fill="#b19c6d" id="7"/><path d="M -246.77 196.25 S -133.39 185.86&#10;            0.00 196.25 113.39 178.25&#10;            246.77 196.25 307.55 185.25&#10;            493.55 196.25 518.32 185.86&#10;            740.32 196.25 853.71 185.86&#10;            987.09 196.25 h 110 V 470.16 H -246.77 Z" fill="#baa26d" id="8"/><path d="M -246.77 217.03 S -133.39 199.03&#10;            0.00 217.03 71.77 206.64&#10;            246.77 217.03 315.55 206.64&#10;            493.55 217.03 565.32 203.03&#10;            740.32 217.03 825.09 206.64&#10;            987.09 217.03 h 110 V 470.16 H -246.77 Z" fill="#c3a86d" id="9"/><path id="10" d="M -246.77 237.82 S -184.00 223.82&#10;            0.00 237.82 113.39 222.82&#10;            246.77 237.82 308.55 227.42&#10;            493.55 237.82 570.32 227.42&#10;            740.32 237.82 738.09 227.42&#10;            987.09 237.82 h 110 V 470.16 H -246.77 Z" fill="#ccae6d"/><path id="11" d="M -246.77 258.60 S -133.39 247.60&#10;            0.00 258.60 4.77 248.21&#10;            246.77 258.60 271.55 238.60&#10;            493.55 258.60 606.93 247.60&#10;            740.32 258.60 833.09 248.21&#10;            987.09 258.60 h 110 V 470.16 H -246.77 Z" fill="#d5b46d"/><path id="12" d="M -246.77 279.38 S -133.39 268.99&#10;            0.00 279.38 113.39 262.38&#10;            246.77 279.38 360.16 261.38&#10;            493.55 279.38 496.32 268.99&#10;            740.32 279.38 800.09 268.99&#10;            987.09 279.38 h 110 V 470.16 H -246.77 Z" fill="#deba6d"/></g></svg>